<svg id="Calque_1" data-name="Calque 1" xmlns="http://www.w3.org/2000/svg" viewBox="0 0 112.98 52.81"><defs><style>.cls-1{fill:#988983;}</style></defs><path class="cls-1" d="M96.57,0H78.36V9.13C75.46,3.82,70.36.22,64.44,0H46.23V42.55L31.58,0H16.89L0,52.81H14.14l2.73-9.87H31.6l2.73,9.87H59.65V37.74a15.12,15.12,0,0,0,4.28.62c6.1,0,11.44-3.65,14.43-9.12V52.81H91.78V37.74a15,15,0,0,0,4.26.62c9.35,0,16.94-8.57,16.94-19.18C113,8.81,105.7.31,96.57,0ZM19.94,31.81l4.3-15.52,4.29,15.52Zm39.71-7V14S67,13.28,67,19.49s-7.35,5.26-7.35,5.26Zm32.13,0V14s7.34-.72,7.34,5.49-7.34,5.26-7.34,5.26Z"/></svg>