<svg id="Calque_1" data-name="Calque 1" xmlns="http://www.w3.org/2000/svg" viewBox="0 0 38.12 74.82"><defs><style>.cls-1{fill:#c1b8b5;}</style></defs><path class="cls-1" d="M38.12,12.23,0,0V10.11l7.23,2V22.59L0,24.74V40.16H9.88L0,46.8V57.94l12.65-8.78a14.81,14.81,0,0,0,11.62,5.15A17,17,0,0,0,27.53,54v4.79H0v9.08H27.53v7H38.12v-23h-5.2a10.72,10.72,0,0,0,5.19-8.48h0V31.23H12.73l25.38-8.45ZM20.27,40.16h7.79s.53,4.9-4,4.9-3.86-4.9-3.86-4.9ZM14.62,20.39V14.24l10.71,3Z" transform="translate(0 0)"/></svg>