<svg id="Calque_1" data-name="Calque 1" xmlns="http://www.w3.org/2000/svg" viewBox="0 0 215.15 44.3"><defs><style>.cls-1{fill:#ada19c;}</style></defs><polygon class="cls-1" points="133.23 0.6 130.95 0.6 130.95 44.18 133.23 44.18 141 44.18 151.1 44.18 151.1 32.43 141 32.43 141 27.27 149.49 27.27 149.49 16.91 141 16.91 141 12.35 151.1 12.35 151.1 0.6 141 0.6 133.23 0.6"/><rect class="cls-1" x="110.14" y="17.92" width="15.85" height="10.37"/><polygon class="cls-1" points="174.07 25.72 164.44 0.6 162.65 0.6 161.51 0.6 152.6 0.6 152.6 44.18 162.65 44.18 162.65 19.84 172.27 44.18 174.07 44.18 181.18 44.18 184.11 44.18 184.11 0.6 174.07 0.6 174.07 25.72"/><path class="cls-1" d="M222.2,29.24h0V27.75h0C222.2,6.46,209,6.88,209,6.88H193.14V50.52h13.57v.06s15.43,1.26,15.49-21.22h0Zm-16.33,9.54h-2.69V18.33h3.53c3.83.72,5.38,5.46,5.38,9.42V29.3C212.09,33.44,210.3,38.6,205.87,38.78Z" transform="translate(-7.05 -6.34)"/><path class="cls-1" d="M115.94,6.94h-10.7l-7.3,15.77V6.94h-10V13.6s-3.1-7.26-12.67-7.26-14.89,8-17,20.93L52.38,6.94H41.79L33.66,35.3A10.77,10.77,0,0,0,27.92,27a11.56,11.56,0,0,0,3.65-8.88c0-6-4.07-11.21-7.84-11.21H7.05V23.13h0v9.53h0V50.52H22.9a9.05,9.05,0,0,0,7.65-4.25L33.42,36.2,29.35,50.46l10.17.12,2.39-8.39h10l2.27,8.39H65L63.2,44.23c.24.6,3,6.35,12,6.35A15,15,0,0,0,88,43.33V50.4h10V35.6l7.18,15h12.25L105.71,27.33ZM17.1,17.07h3.58s2.22.18,2.22,3-3.11,3.06-3.11,3.06H17.1Zm3.46,22.78H17.1V32.66H19l2.45.06s2.33-.36,2.33,3.42S20.56,39.85,20.56,39.85Zm23.38-7,3.17-12.59L50,32.9Zm37.68,0s-2.34,4.62-6.52,4.62-6.46-4.32-6.46-9,2.27-9,6.7-9,6.22,5,6.22,5l6.33-4.62v17Z" transform="translate(-7.05 -6.34)"/></svg>