<svg id="Calque_1" data-name="Calque 1" xmlns="http://www.w3.org/2000/svg" viewBox="0 0 214.42 26.56"><defs><style>.cls-1{fill:#776b5d;}</style></defs><path class="cls-1" d="M889.31,639.9H876.59v26.22H886v-7.48a13.91,13.91,0,0,0,3,.31c6.53,0,11.83-4.26,11.83-9.52S895.67,640.06,889.31,639.9ZM886,652.2v-5.37s5.12-.36,5.12,2.73S886,652.2,886,652.2Z" transform="translate(-686.36 -639.78)"/><path class="cls-1" d="M851.94,666.12l-8.77-8.52c3.44-1.67,5.74-4.71,5.74-8.17,0-5.17-5.1-9.37-11.46-9.53h-12.7v26.22h9.36v-6.58l6.65,6.58Zm-13.06-16.81c0,2.34-4.77,2.32-4.77,2.32v-4.39S838.88,647,838.88,649.31Z" transform="translate(-686.36 -639.78)"/><polygon class="cls-1" points="134.04 0.11 131.45 0.11 122.4 0.11 119.91 0.11 115.47 0.11 115.47 7.39 122.4 7.39 122.4 26.33 131.45 26.33 131.45 7.39 138.39 7.39 138.39 0.11 134.04 0.11"/><path class="cls-1" d="M869.36,666.12h10.75l-12.69-26H856.86l-12.23,26h10.1l2-4.93h10.45Zm-10.52-9.93,3-7.28,3.17,7.28Z" transform="translate(-686.36 -639.78)"/><path class="cls-1" d="M781.73,639.9H763.15v4.52a16.39,16.39,0,0,0-11.64-4.64c-6,0-11.21,3-13.72,7.36-2.52-4.35-7.71-7.36-13.73-7.36-8.48,0-15.35,6-15.35,13.28,0,.25,0,.5,0,.74a5.59,5.59,0,0,0-3-1.67,6.48,6.48,0,0,0,2.93-5.61c0-6.95-7.07-6.62-7.07-6.62H686.36v26.22h15.28c6.12,0,8.79-3,9-6.66a15.84,15.84,0,0,0,13.45,6.88c6,0,11.21-3,13.73-7.36,2.51,4.36,7.71,7.36,13.72,7.36,8.48,0,15.35-5.94,15.35-13.28a11.73,11.73,0,0,0-1.6-5.88h4.82v18.94h9V647.18h6.94V639.9Zm-87,6.4h2.79c1.4.15,2.8.59,2.8,1.77s-1.71,1.74-3.24,1.86h-2.35Zm3.46,13h-3.46V655H696c2,.06,5.6.42,5.6,2.29C701.64,658.6,699.91,659.09,698.19,659.25Zm25.91-1c-3.4,0-6.16-2.32-6.16-5.18s2.76-5.18,6.16-5.18,6.16,2.32,6.16,5.18S727.5,658.24,724.1,658.24Zm27.46,0c-3.41,0-6.16-2.32-6.16-5.18s2.75-5.18,6.16-5.18,6.16,2.32,6.16,5.18S755,658.24,751.56,658.24Z" transform="translate(-686.36 -639.78)"/><path class="cls-1" d="M797.68,647.88l6-3a10.12,10.12,0,0,0-9-4.73c-8,0-10.42,4.93-10.42,7.71s2.72,7.31,9.71,7.64c0,0,2.91-.13,2.91,2.07s-2.91,2-2.91,2a4.51,4.51,0,0,1-3.11-1.82l-7.77,1.82s5.37,6.52,11.07,6.52,11.72-1.79,11.72-7.88c0-7.06-7.79-8.38-11-8.81-2.61-.34-1.75-2.91.29-3A2.65,2.65,0,0,1,797.68,647.88Z" transform="translate(-686.36 -639.78)"/></svg>