<svg id="Calque_1" data-name="Calque 1" xmlns="http://www.w3.org/2000/svg" viewBox="0 0 417.54 53.52"><defs><style>.cls-1{fill:#595046;}</style></defs><path class="cls-1" d="M251.47,6A19.18,19.18,0,0,0,238.08.59h-20V52.8h15.18V37.92a19.3,19.3,0,0,0,4.85.61,19.07,19.07,0,0,0,19.17-19v0a18.67,18.67,0,0,0-.72-5.15h7.07V52.8h15.19V14.41h10.89V52.8h30.91V38.53H304.86V32.07h13.62V19.56H304.86V14.41h15.76V.59H251.48ZM233.22,24.91V15s8.37-.67,8.37,4.81S233.22,24.91,233.22,24.91Z" transform="translate(0.02 0.01)"/><path class="cls-1" d="M199.66,32.07h13.52V19.83H199.66V14.41h15.9V.86H184.47V9.49A25.49,25.49,0,0,0,164.7,0a25.88,25.88,0,0,0-23.78,16.17V.86H125.73V31.72L109.84.86H92.21v15a25.49,25.49,0,0,0-45-4.23A25.65,25.65,0,0,0,25.86,0C11.56,0,0,12,0,26.74S11.56,53.48,25.87,53.48A25.68,25.68,0,0,0,47.22,41.86a25.48,25.48,0,0,0,45-4.23V52.91h15.2V23.12l15.44,29.79h18.06V37.29a25.88,25.88,0,0,0,23.79,16.17A25.49,25.49,0,0,0,184.48,44V52.8h31.09V38.29H199.66ZM35.18,31.51a10.43,10.43,0,1,1,.15-9.25l9.09-5.16a27.47,27.47,0,0,0,.12,19.62Zm33.46,5.65h0A10.43,10.43,0,1,1,79,26.69v0a10.4,10.4,0,0,1-10.39,10.4Zm115.83-.11-10.33-5.83a10.44,10.44,0,1,1,0-9.06l10.38-5.58Z" transform="translate(0.02 0.01)"/><path class="cls-1" d="M353.91,15.49V30.12s0,7.67-7.42,7.67-7.43-7.67-7.43-7.67V.59H323.88V34.88a17.77,17.77,0,0,0,5.69,12.06l.22.21.11.1.09.08a25.13,25.13,0,0,0,32.89,0h0A15,15,0,0,0,367.51,41a17.28,17.28,0,0,0,1.5-6.44V.59h-15.1Z" transform="translate(0.02 0.01)"/><path class="cls-1" d="M402.76,35.6A18.94,18.94,0,0,0,392.52.6a10.29,10.29,0,0,0-1.24.05L391.5.6H372.29V52.8h15.19V39.07L398.94,52.8h18.58ZM387.49,24.92V15c1.46-.08,8.06-.07,8.06,4.8h0C395.56,24.7,389,24.93,387.49,24.92Z" transform="translate(0.02 0.01)"/></svg>