<svg id="Calque_1" data-name="Calque 1" xmlns="http://www.w3.org/2000/svg" viewBox="0 0 62.78 228.24"><defs><style>.cls-1{fill:#776b5d;}</style></defs><path class="cls-1" d="M30.86,111.14v16.37H66L30.86,143.85V163.1H44.41c-4.83,3.14-13.55,10.47-13.55,22.44,0,14.82,10.38,23,21.72,25.7H30.86v16h9.38a18.55,18.55,0,0,0-9.38,16.26c0,9.86,4.94,15.33,10.25,18H30.86v33.31h15.3C42,296.31,31.08,302,31,319v4.62l0,5.79-.06,9.94H93.46l.09-15.73h0l0-4.62s1.84-15.58-14.72-24.27H93.52v-33.3H83.41c4.54-4,10.24-10.4,10.24-17,0-6.34-1.45-12.9-5.5-17.27h5.5v-16H73.34c5.28-1.68,16.61-6.72,20.31-20V179.31s-2.4-9.42-14.1-16.21h14.1V146.72H57.73l35.92-15.9V111.14ZM76.63,323.67H48.26v-6s.05-9.87,13-9.87S76.66,314.42,76.63,319ZM76,261.46v17H68.5V264H53.74V278.5H47.2V263.37a16.35,16.35,0,0,0,2.32.17c6.72,0,17.68-5.23,18.46-18.69,0,0-.31-5.61,5-5.61s4.86,5.61,4.86,5.61-.15,3.36-4.38,6l3.12,10.65ZM53.26,243.1c-.31,6.23-7.19,3.74-6.42-.13s2.68-5.36,2.68-5.36L43,227.2h17.2c-5.15,4.93-6.71,12.06-6.9,15.9Zm8.62-45.8c-7.06,0-12.71-4.21-12.71-10.65s6.72-10.52,6.72-10.52l-7.37-13h8v25.35H69.2V176.68A9.73,9.73,0,0,1,74.92,186C74.94,193.39,69,197.3,61.88,197.3Z" transform="translate(-30.86 -111.14)"/></svg>