<svg id="Calque_1" data-name="Calque 1" xmlns="http://www.w3.org/2000/svg" viewBox="0 0 416.6 52.91"><defs><style>.cls-1{fill:#595046;}</style></defs><path class="cls-1" d="M130.56,31.29h13.52V19.17H130.56V13.84h15.91V.4H104.19L92.87,34.48,81.7.4H42V14.11S38.56.4,19,.4H0V51.93H18.91a24.65,24.65,0,0,0,23-13V51.84H73V37.4H57.14V31.29H70.66V19.17H57.14V13.84H70.85L84.85,52h16.48l14.06-39.22V51.84h31.1V37.39H130.56ZM18.93,38H14.64V14.64h5.61s9.18,0,9.18,10.66S23.25,38,18.93,38Z" transform="translate(0 0)"/><path class="cls-1" d="M291.1.39h-.85V7.28a19.29,19.29,0,0,0-14.39-7H255.31V7.74A19.27,19.27,0,0,0,240.58.28H220V14.1A25.82,25.82,0,0,0,197.07,0c-14.3,0-25.88,11.82-25.88,26.46A26.76,26.76,0,0,0,174,38.34H163V.39H148.5V51.84h30.38V45.28a25.47,25.47,0,0,0,18.18,7.63A25.85,25.85,0,0,0,220,38.84V51.92h15.18V37.2a19.83,19.83,0,0,0,4.85.61,19.29,19.29,0,0,0,15.31-7.47V51.93h15.19V37.2a19.42,19.42,0,0,0,19.76-6.42V51.84h31.09V37.39H305.46V31.28H319V19.16H305.48V13.84h15.91V.39Zm-94,36.38a10.32,10.32,0,1,1,10.39-10.31A10.32,10.32,0,0,1,197.1,36.77Zm38-12.28h0V13.92s8.3-.7,8.3,5.38-8.26,5.19-8.26,5.19Zm35.35,0V13.92s8.3-.7,8.3,5.38-8.26,5.19-8.26,5.19Z" transform="translate(0 0)"/><path class="cls-1" d="M402.38,35.14A18.69,18.69,0,0,0,411.69,19,19,19,0,0,0,393.09.28H372.5V51.93h15.19v-13l10.8,13H416.6ZM387.66,23.39V14.73s7.75-.51,7.75,4.08S387.66,23.39,387.66,23.39Z" transform="translate(0 0)"/><path class="cls-1" d="M355,15V29.53s0,7.59-7.42,7.59-7.43-7.59-7.43-7.59V.3H324.93V34.23a17.55,17.55,0,0,0,5.74,11.92l.22.21.11.1.09.08a25.32,25.32,0,0,0,32.89,0h0a14.94,14.94,0,0,0,4.62-6.28,16.6,16.6,0,0,0,1.5-6.38V.3H355Z" transform="translate(0 0)"/></svg>