<svg id="Calque_1" data-name="Calque 1" xmlns="http://www.w3.org/2000/svg" viewBox="0 0 240.78 30.88"><defs><style>.cls-1{fill:#92897d;}</style></defs><rect class="cls-1" x="135.77" y="12.29" width="15.84" height="7.51"/><polygon class="cls-1" points="157.11 0.87 156.59 0.87 156.59 30.5 157.11 30.5 166.39 30.5 176.66 30.5 176.66 22.21 166.39 22.21 166.39 18.67 175.12 18.67 175.12 11.69 166.39 11.69 166.39 8.59 176.66 8.59 176.66 0.87 166.39 0.87 157.11 0.87"/><polygon class="cls-1" points="125.93 0.8 116.03 0.8 116.03 0.87 108.44 0.87 108.44 9.1 116.03 9.1 116.03 30.51 125.93 30.51 125.93 9.1 133.52 9.1 133.52 0.87 125.93 0.87 125.93 0.8"/><path class="cls-1" d="M97,17.47,87.09.8H75.47V9A17.38,17.38,0,0,0,45.56,8.1C43.91,3.91,39.44.93,34.12.81H0V30.53H10.1V19.38h9V12.1h-9V8.87H20.67V30.53h10V23.08l7,7.45H49.47l-9.3-9.65A12.1,12.1,0,0,0,43.76,18C45.09,25.34,52,30.9,60.26,30.9a16.89,16.89,0,0,0,15.2-9v8.6h9.89v-17L95,30.5h11.89V.82H97ZM30.62,14.12v-5s5-.3,5,2.35S30.62,14.12,30.62,14.12Zm29.73,7.39h0c-3.71,0-6.71-2.7-6.71-6s3-6,6.71-6,6.72,2.7,6.72,6-3,6-6.76,6Z" transform="translate(0 -0.02)"/><polygon class="cls-1" points="200.05 17.45 190.18 0.8 188.45 0.8 184.17 0.8 178.55 0.8 178.55 30.51 188.45 30.51 188.45 13.5 198.06 30.51 200.05 30.51 209.95 30.51 209.95 0.8 200.05 0.8 200.05 17.45"/><path class="cls-1" d="M238.62,7.65C237.51,5.48,233.93.86,224.14.86H211.85V30.47h12.31a17.68,17.68,0,0,0,11.4-3.5,5.11,5.11,0,0,0,.68-.55h0A16,16,0,0,0,239.09,23v-.08a13.44,13.44,0,0,0,1.67-7.21A16.53,16.53,0,0,0,238.62,7.65ZM224.12,22.5h-2.8V9H225s6,0,6,6.12-4,7.35-6.8,7.35Z" transform="translate(0 -0.02)"/></svg>