<svg id="Calque_1" data-name="Calque 1" xmlns="http://www.w3.org/2000/svg" viewBox="0 0 215.4 88.46"><defs><style>.cls-1{fill:#ada19c;}</style></defs><path class="cls-1" d="M249.09,21.66C247.32,15.4,241.74,0,229.4,0c-14.55,0-22.88,21.8-22.88,45.77,0,26.93,9.82,41.49,20.85,41.49,12.38,0,17.63-7.05,21.7-19.83V87.26h13.65V1.56H249.09Zm-19.34,40.5c-5.34,0-9.12-8.52-9.12-17.28s2.89-18.29,8.84-18.29,8.23,9.6,8.23,9.6l11.39-11.26V37.78H227.37V53.87h9.85v.18s-2.15,8.11-7.49,8.11Z" transform="translate(-206.52)"/><polygon class="cls-1" points="120.61 32.45 105.73 32.45 105.73 1.56 92.08 1.56 92.08 1.67 82.11 1.67 82.11 1.56 68.45 1.56 68.45 1.67 57.95 1.67 57.95 24.76 68.45 24.76 68.45 87.26 82.11 87.26 82.11 24.76 92.08 24.76 92.08 32.45 92.08 55.53 92.08 87.26 105.73 87.26 105.73 55.53 120.61 55.53 120.61 87.26 134.25 87.26 134.25 1.56 120.61 1.56 120.61 32.45"/><path class="cls-1" d="M343.38,51.82V50.21S343.35,50.84,343.38,51.82Z" transform="translate(-206.52)"/><path class="cls-1" d="M370,51.17c0,1.37-.26,11.91-6.08,11.91-6.24,0-6.87-10.83-6.87-11.81V1.56H343.4V52.79c.14,4.92,1,15.93,5.34,24.68a23.09,23.09,0,0,0,4.45,6.58,19.48,19.48,0,0,0,3.86,3.19V87a12,12,0,0,0,5.75,1.47,16,16,0,0,0,7.2-1.38v.13c.33-.21.64-.43.95-.65a12.22,12.22,0,0,0,3-2.68,26.76,26.76,0,0,0,3.89-5.63h0c5-9.51,5.72-22,5.77-26.43V1.56H370Z" transform="translate(-206.52)"/><path class="cls-1" d="M414.3,41.24s5.07-3.91,5.07-17.31S412.22,1.56,406.44,1.56H386.1v85.7H408s13.85,1.65,13.85-24.18C421.87,63.07,423,48.16,414.3,41.24ZM399.76,21.88H404s3.15-.39,3.15,6.13-4.46,6.3-7.39,6.3Zm5.07,44h-5.12v-13h6.17s2.76.89,2.76,7.46-3.77,5.49-3.77,5.49Z" transform="translate(-206.52)"/></svg>