<svg id="Calque_1" data-name="Calque 1" xmlns="http://www.w3.org/2000/svg" viewBox="0 0 240.1 31.11"><defs><style>.cls-1{fill:#ada69e;}</style></defs><path class="cls-1" d="M202,20.35l-9,21.16V20.92H182.69V40.34s.13,2.38-4,2.38V51h5.05a11.51,11.51,0,0,0,6-2L189,51h10.69l2.16-5.81h11.06L215.18,51h11.38L213.12,20.35Zm2.09,18.93,3.19-8.6,3.36,8.6Z" transform="translate(-178.73 -20.34)"/><path class="cls-1" d="M414,20.92H393.09v2.82a14.91,14.91,0,0,0-8.5-2.81H370.3V51h10.52V42.44a16.45,16.45,0,0,0,3.36.35c7.33,0,13.28-4.89,13.28-10.93a8.94,8.94,0,0,0-.37-2.58h3.77V51H411V29.28h7.8V20.92ZM380.82,35h0V28.89s5.73-.42,5.73,3.12S380.82,35,380.82,35Z" transform="translate(-178.73 -20.34)"/><path class="cls-1" d="M357.59,48.08l-7-7.08a10.61,10.61,0,0,0,5.83-9.16c0-5.93-5.52-10.76-12.4-10.93H330.21V26.6a17.73,17.73,0,0,0-13.76-6.26c-9.39,0-17,6.86-17.11,15.36-2.84-3.36-7.84-4.31-10.39-4.42-3.65-.15-2.19-3.52.08-3.14a5.8,5.8,0,0,1,3.15,1.31l6.74-3.53s-2.61-5.58-10.18-5.58c-9,0-11.8,5.83-11.8,9.11s3.08,8.64,11,9c0,0,3.3-.15,3.3,2.46s-3.3,2.37-3.3,2.37a5.08,5.08,0,0,1-3.52-2.14l-7,1.69-9.87-22.51H256.44L243.49,51h10.7l2.15-5.81H267.4L269.69,51h11.38l-1.77-4c2.35,2,5.58,4,8.9,4,6,0,12.3-1.81,13.16-7.86a17.42,17.42,0,0,0,15.14,8.31,17.8,17.8,0,0,0,13.76-6.27V51h10.09V43.25L347.87,51h20.06V20.92H357.61Zm-99-8.8,3.18-8.6,3.36,8.6Zm71.65,3.2-7.45-4A7,7,0,0,1,316.53,42c-3.8,0-6.88-2.72-6.88-6s3.07-6,6.88-6a7,7,0,0,1,6.21,3.48L330.19,30ZM340.35,35h0V28.89s5.53-.42,5.53,3.12S340.35,35,340.35,35Z" transform="translate(-178.73 -20.34)"/><polygon class="cls-1" points="64.16 0.01 62 5.83 59.81 11.75 56.62 20.35 54.55 15.04 50.95 5.83 48.67 0.01 37.29 0.01 50.73 30.68 61.9 30.68 74.86 0.01 64.16 0.01"/></svg>