<svg id="Calque_1" data-name="Calque 1" xmlns="http://www.w3.org/2000/svg" viewBox="0 0 139.19 31.38"><defs><style>.cls-1{fill:#988983;}</style></defs><polygon class="cls-1" points="84.52 18.8 91.1 18.84 91.1 12.17 84.52 12.13 84.52 8.67 92.31 8.74 92.31 0.13 84.52 0.07 84.52 0.01 77.76 0.01 76.31 0 76.31 0.01 76.09 0.01 76.09 22.53 76.09 31.13 92.32 31.26 92.32 22.66 84.52 22.59 84.52 18.8"/><path class="cls-1" d="M65.66,0H51.91V9.3A12.81,12.81,0,0,0,39.8,0V0H38.62V0A12.72,12.72,0,0,0,26.52,9.3V0H18.09V17L10.22,0H0V31.13H8.43V14.06l8.42,17h1.24v.12h8.43V22.81c3.92,8,10.67,8.43,12.69,8.36s8.77-.34,12.7-8.36v8.32h8.42c4.68,0,15.74,0,15.74-16S65.66,0,65.66,0ZM38.75,21.72c-1.74-.13-5-1-5-6,0-5.86,5.22-5.8,6-5.76,1.81.2,5,1.2,5,5.76C44.72,21.49,39.6,21.72,38.75,21.72Zm25.61,1H60.45V8.63H65s3.82-.33,3.9,6.94C69,23.41,64.36,22.74,64.36,22.74Z" transform="translate(0 0)"/><ellipse class="cls-1" cx="100.87" cy="25.85" rx="3.26" ry="5.4"/><path class="cls-1" d="M139.19,21.12a9.39,9.39,0,0,0-2.57-5.94c-2.85-2.69-6.76-1.89-8.46-3.71-.65-.7-.71-3.78,1.23-3.78a2.54,2.54,0,0,1,2.48,1.46l5.56-4.38A9.44,9.44,0,0,0,128.92.11C123.73.11,121,4.77,121,4.77V0h-8.43V18.84s-.06,4-3.32,4v8.32H113a8.32,8.32,0,0,0,5.31-2.38,9.6,9.6,0,0,0,1.36-2.08L121,28a15.51,15.51,0,0,0,8,3.41c4.6.21,7-1.07,8.72-3.33S139.19,21.12,139.19,21.12Zm-9.93,1.76c-2.55,0-3.25-1.64-3.25-1.64l-5,.25c0-.55.07-1.11.07-1.67v-6a5.14,5.14,0,0,0,.65,1.35,8.93,8.93,0,0,0,4,2.78,35.62,35.62,0,0,1,4.61,1.34C131.12,19.71,131.82,22.88,129.26,22.88Z" transform="translate(0 0)"/></svg>