<svg id="Calque_1" data-name="Calque 1" xmlns="http://www.w3.org/2000/svg" viewBox="0 0 62.83 273.3"><defs><style>.cls-1{fill:#776b5d;}</style></defs><ellipse class="cls-1" cx="8.61" cy="200.87" rx="8.61" ry="7.83"/><path class="cls-1" d="M61.06,386.76l8.7-14s-6.45-3.17-6.45-10.16,6.22-10.76,12-10.8,12,3.87,12,10.8-6.45,10.16-6.45,10.16l8.35,13.41v4H45.06v16.14H89.18v11.61h16.53V378.28h-5.45c6.61-7.92,5.86-15.58,5.86-15.58.6-21.11-21.72-25.64-28.81-26.55l28.4-9.18V309.13l-44-14.29V279.43h7.19v13.62H83.32V279.43h5.61V295.3h16.72V279.43h0V263.3H51.18l15.49-11.66s4.68,9.85,18.69,9.85,20.27-8.9,20.27-24.3V221.05H45v16.13H61.25L45,248.93v57.22l10.9,3.51v17.07L45,330v16.6L52.9,344c-4.94,4-8.66,9.89-8.41,18.67C44.49,362.7,43.05,377.07,61.06,386.76ZM69,313.85l14.44,4.66L69,322.83Zm10.18-76.67v0H89.25v4s-.4,4.12-5.31,4.12S79,241.47,79,240.69C79,240.22,79.09,238.38,79.13,237.18Z" transform="translate(-44.02 -221.05)"/><path class="cls-1" d="M106.82,475.36c-.62-9.88-6-13.87-8.09-15.06h7V444.16H65.55c-3.88,0-3.93-6.13-3.93-6.13H44.54c0,5.18.21,11.34,4.78,16.86a12,12,0,0,0,4.46,3.17s-9.35,4.8-9.35,17.58,9.87,18.71,19.12,18.71,14.73-6,17.32-12.46,3.95-9.24,6.28-9.14a3,3,0,0,1,2.69,4.38,9.67,9.67,0,0,1-2.69,2.79L94,492.42S107.6,487.66,106.82,475.36Zm-37-5c-2.24,6-2.78,9.79-7.35,7.74,0,0-2.51-1.59-.81-5.88,0,0,1.62-2.16,3.5-2.05l-3.37-10.07a33.21,33.21,0,0,0,3.73.24H77.48S72.09,464.35,69.85,470.32Z" transform="translate(-44.02 -221.05)"/></svg>