<svg id="Calque_1" data-name="Calque 1" xmlns="http://www.w3.org/2000/svg" viewBox="0 0 61.01 127"><defs><style>.cls-1{fill:#c1b8b5;}</style></defs><polygon class="cls-1" points="44.07 48.89 36.81 48.89 36.81 38.04 23.03 38.04 23.03 48.89 16.93 48.89 16.93 35.91 0 35.91 0 60.38 0 61.87 0 72.94 33.89 80.19 0 87.9 0 97.94 33.89 105.45 0 113.02 0 127 61 111.99 61 100.1 30 93.08 61 85.96 61 74.04 14.11 61.87 16.93 61.87 44.07 61.87 48.72 61.87 61 61.87 61 35.91 44.07 35.91 44.07 48.89"/><path class="cls-1" d="M42.53,0A18.74,18.74,0,0,0,28.06,7S24.18,2,15.91,2,0,6.81,0,15V33.9H61V15S62.21,0,42.53,0ZM14,21v-.38c0-1.44.4-6.58,4.48-6.58.93,0,4.52.3,4.52,7Zm21.92,0s-.91-8.15,5.37-8.15c4.84,0,4.8,5.1,4.8,8.15Z"/></svg>